# Blender 4.2.2 LTS
# www.blender.org
mtllib collagetest.mtl
o Cube
v -1.500000 3.230000 2.000000
v 1.500000 0.000000 -2.000000
v -1.500000 3.230000 -2.000000
v 1.500000 0.000000 2.000000
v 1.500000 3.230000 2.000000
v -1.500000 0.000000 -2.000000
v 1.500000 3.230000 -2.000000
v -1.500000 0.000000 2.000000
v 1.500000 3.400000 -2.000000
v -1.500000 3.400000 2.000000
v 1.500000 3.400000 2.000000
v -1.500000 3.400000 -2.000000
v 0.000000 4.000000 -2.000000
v 1.500000 3.400000 -2.000000
v 1.500000 3.400000 2.000000
v 0.000000 4.000000 2.000000
v -1.500000 3.400000 -2.000000
v 0.000000 4.000000 -2.000000
v 0.000000 4.000000 2.000000
v -1.500000 3.400000 2.000000
v 1.500000 0.000000 1.391804
v 1.500000 0.000000 0.370945
v 1.500000 1.960927 1.370901
v 1.500000 1.984585 0.471708
v 1.500000 1.297195 2.000000
v 1.500000 1.296702 1.377981
v 1.500000 1.272565 0.435557
v 1.500000 1.282932 -2.000000
v -1.500000 1.241690 2.000000
v -1.500000 1.257227 -2.000000
v 1.500000 2.479721 0.249449
v 1.500000 1.471092 0.234626
v 1.500000 1.464095 -0.512338
v 1.500000 2.486567 -0.516150
v 1.500000 2.473677 -0.955142
v 1.500000 1.483112 -0.954744
v 1.500000 1.482597 -1.736331
v 1.500000 2.487130 -1.742641
v 1.600000 1.282932 -2.000000
v 1.600000 0.000000 -2.000000
v 1.600000 1.297195 2.000000
v 1.600000 0.000000 2.000000
v 1.600000 0.000000 0.370945
v 1.600000 0.000000 1.391804
v 1.600000 1.272565 0.435557
v 1.600000 1.296702 1.377981
v 1.500000 0.000000 -2.100000
v -1.500000 0.000000 -2.100000
v 1.500000 1.282932 -2.100000
v -1.500000 1.257227 -2.100000
v 1.600000 1.282932 -2.100000
v 1.600000 0.000000 -2.100000
v -1.600000 0.000000 -2.000000
v -1.600000 0.000000 2.000000
v -1.600000 1.257227 -2.000000
v -1.600000 1.241690 2.000000
v -1.600000 1.257227 -2.100000
v -1.600000 0.000000 -2.100000
v 1.500000 1.297195 2.100000
v 1.500000 0.000000 2.100000
v -1.500000 0.000000 2.100000
v -1.500000 1.241690 2.100000
v 1.600000 1.297195 2.100000
v 1.600000 0.000000 2.100000
v -1.600000 0.000000 2.100000
v -1.600000 1.241690 2.100000
v 1.500000 0.000000 1.391804
v 1.500000 0.000000 0.370945
v 1.500000 1.296702 1.377981
v 1.500000 1.960927 1.370901
v 1.500000 1.984585 0.471708
v 1.500000 1.272565 0.435557
v 1.400000 0.000000 1.391804
v 1.400000 0.000000 0.370945
v 1.400000 1.296702 1.377981
v 1.400000 1.960927 1.370901
v 1.400000 1.984585 0.471708
v 1.400000 1.272565 0.435557
v 1.400000 2.479721 0.249449
v 1.400000 1.471092 0.234626
v 1.400000 1.464095 -0.512338
v 1.400000 2.486567 -0.516150
v 1.400000 2.473677 -0.955142
v 1.400000 1.483112 -0.954744
v 1.400000 1.482597 -1.736331
v 1.400000 2.487130 -1.742641
v -0.142860 3.942856 -1.833617
v -0.150529 3.939788 -1.482278
v -0.412948 3.834821 -1.463989
v -0.407976 3.836810 -1.798964
v -0.142860 4.342856 -1.833617
v -0.150529 4.339788 -1.482278
v -0.412948 4.234821 -1.463989
v -0.407976 4.236810 -1.798964
v -0.455286 2.499782 2.000000
v -0.447015 1.424531 2.000000
v 0.429085 1.433040 2.000000
v 0.420328 2.508885 2.000000
v -0.455286 2.499782 1.900000
v -0.447015 1.424531 1.900000
v 0.429085 1.433040 1.900000
v 0.420328 2.508885 1.900000
v 0.448250 2.523768 -2.000000
v 0.455861 1.428160 -2.000000
v -0.434946 1.419909 -2.000000
v -0.429875 2.515780 -2.000000
v 0.448250 2.523768 -1.900000
v 0.455861 1.428160 -1.900000
v -0.434946 1.419909 -1.900000
v -0.429875 2.515780 -1.900000
v 1.400000 1.182737 0.596928
v 1.400000 1.221184 0.557502
v 1.400000 1.223448 0.500535
v 1.400000 1.182162 0.472711
v 1.400000 1.121169 0.489578
v 1.400000 1.104461 0.549421
v 1.400000 1.129251 0.589365
v 1.450000 1.182737 0.596928
v 1.450000 1.221184 0.557502
v 1.450000 1.223448 0.500535
v 1.450000 1.182162 0.472711
v 1.450000 1.121169 0.489578
v 1.450000 1.104461 0.549421
v 1.450000 1.129251 0.589365
vn -0.0000 -0.0000 -1.0000
vn -0.0000 1.0000 -0.0000
vn -1.0000 -0.0000 -0.0000
vn -0.0000 -0.0000 1.0000
vn -0.0000 -1.0000 -0.0000
vn 0.3714 0.9285 -0.0000
vn -0.3714 0.9285 -0.0000
vn 1.0000 -0.0000 -0.0000
vn -0.0000 -0.0507 0.9987
vn -0.0000 -0.0107 -0.9999
vn -0.0000 0.0147 -0.9999
vn -0.0000 0.0037 1.0000
vn -0.0000 1.0000 -0.0008
vn -0.0000 1.0000 0.0043
vn -0.0086 1.0000 -0.0000
vn -0.0000 1.0000 0.0039
vn -0.0185 0.9998 -0.0000
vn -0.0000 -0.9997 -0.0263
vn -0.0000 -0.9999 -0.0171
vn -0.0000 1.0000 -0.0007
vn -0.0000 -1.0000 -0.0089
vn -0.0000 1.0000 -0.0094
vn -0.0000 0.0063 1.0000
vn -0.0000 -0.0004 -1.0000
vn -0.1296 -0.0000 -0.9916
vn 0.0695 -0.0000 0.9976
vn -0.9999 -0.0000 -0.0148
vn 0.9998 -0.0000 0.0218
vn -1.0000 -0.0081 -0.0000
vn 1.0000 0.0077 -0.0000
vn 0.0104 -0.9999 -0.0000
vn -0.0097 1.0000 -0.0000
vn -0.0093 1.0000 -0.0000
vn 1.0000 -0.0046 -0.0000
vn -1.0000 -0.0069 -0.0000
vn 0.0091 -1.0000 -0.0000
vn -0.0000 -0.1400 0.9902
vn -0.0000 -0.9632 -0.2689
vn -0.0000 0.5589 -0.8293
vn -0.0000 0.7159 0.6982
vn -0.0000 -0.8497 0.5273
vn -0.0000 -0.2665 -0.9638
vn -0.0000 0.9992 0.0397
vt 0.598510 0.130745
vt 0.398140 0.190856
vt 0.197770 0.130745
vt 0.462506 0.000079
vt 0.462506 0.250040
vt 0.317407 0.068515
vt 0.614685 0.068515
vt 0.317407 0.216286
vt 0.624980 0.500000
vt 0.624980 0.749960
vt 0.569576 0.138429
vt 0.373887 0.197136
vt 0.178198 0.138429
vt 0.250040 0.749960
vt 0.000079 0.749960
vt 0.613542 0.201657
vt 0.315595 0.201657
vt 0.420050 0.149052
vt 0.385487 0.211980
vt 0.608419 0.064881
vt 0.609421 0.210439
vt 0.605672 0.210148
vt 0.270568 0.193264
vt 0.301236 0.192958
vt 0.462506 0.500000
vt 0.462506 0.749960
vt 0.608219 0.214894
vt 0.306096 0.202053
vt 0.496143 0.145901
vt 0.713535 0.824233
vt 0.716467 0.510160
vt 0.875756 0.076452
vt 0.881648 0.385034
vt 0.795855 0.437621
vt 0.798788 0.123548
vt 0.309289 0.053711
vt 0.415171 0.067500
vt 0.309289 0.203660
vt 0.000079 0.500000
vt 0.250040 0.500000
vt 0.991301 0.224754
vt 0.991301 0.318401
vt 0.439436 0.069202
vt 0.438316 0.145384
vt 0.495855 0.068673
vt 0.424260 0.054207
vt 0.529300 0.144928
vt 0.529270 0.070110
vt 0.692743 0.322720
vt 0.738680 0.224742
vt 0.739724 0.322683
vt 0.994866 0.321643
vt 0.815786 0.224742
vt 0.994866 0.224742
vt 0.250040 0.648161
vt 0.250040 0.711954
vt 0.690087 0.263926
vt 0.737068 0.263888
vt 0.872783 0.329565
vt 0.808250 0.262065
vt 0.992210 0.262848
vt 0.693353 0.224754
vt 0.693353 0.320316
vt 0.689740 0.309337
vt 0.987687 0.307423
vt 0.879529 0.312078
vt 0.993206 0.321248
vt 0.695928 0.322403
vt 0.695165 0.382203
vt 0.992443 0.474485
vt 0.695165 0.474485
vt 0.992443 0.381049
vt 0.994636 0.219314
vt 0.692973 0.312957
vt 0.692973 0.219314
vt 0.994636 0.317142
vt 0.692743 0.224742
vt 0.688904 0.302047
vt 0.990566 0.306232
vt 0.836486 0.583170
vt 0.837021 0.633339
vt 0.978657 0.507164
vt 0.984548 0.815746
vt 0.353612 0.106199
vt 0.353077 0.056030
vt 0.421529 0.107986
vt 0.321769 0.061959
vt 0.469582 0.080370
vt 0.497044 0.211956
vt 0.838206 0.774912
vt 0.835273 0.820687
vt 0.833475 0.625066
vt 0.837568 0.586667
vt 0.834601 0.826820
vt 0.837332 0.773041
vt 0.858389 0.636191
vt 0.860533 0.590075
vt 0.644832 0.897031
vt 0.446756 0.710623
vt 0.648226 0.710831
vt 0.648441 0.709068
vt 0.449873 0.899217
vt 0.447568 0.709107
vt 0.588780 0.145944
vt 0.588304 0.070071
vt 0.739951 0.327981
vt 0.742426 0.304348
vt 0.273043 0.169631
vt 0.253215 0.071919
vt 0.302288 0.169548
vt 0.770619 0.327675
vt 0.771670 0.304266
vt 0.810817 0.432578
vt 0.887446 0.431813
vt 0.502386 0.149277
vt 0.610951 0.203660
vt 0.309289 0.216481
vt 0.503266 0.068141
vt 0.645209 0.896573
vt 0.447191 0.707985
vt 0.647088 0.710623
vt 0.414339 0.148590
vt 0.507766 0.066829
vt 0.315595 0.056626
vt 0.613542 0.054711
vt 0.419294 0.067443
vt 0.647663 0.896802
vt 0.445907 0.707579
vt 0.649282 0.707522
vt 0.507262 0.148457
vt 0.485272 0.071697
vt 0.491293 0.060951
vt 0.591152 0.213276
vt 0.473166 0.086498
vt 0.480474 0.087319
vt 0.678044 0.676712
vt 0.665776 0.682438
vt 0.664075 0.666739
vt 0.471465 0.070799
vt 0.479509 0.067627
vt 0.485433 0.080772
vt 0.317407 0.055881
vt 0.614685 0.055881
vt 0.614685 0.215131
vt 0.613542 0.214319
vt 0.315595 0.214319
vt 0.384485 0.066423
vt 0.256334 0.205839
vt 0.608219 0.202053
vt 0.306096 0.214894
vt 0.610951 0.057896
vt 0.306096 0.056067
vt 0.608219 0.054990
vt 0.810906 0.320860
vt 0.321134 0.209825
vt 0.450054 0.897987
vt 0.645125 0.896441
vt 0.602554 0.076228
vt 0.610951 0.216481
vt 0.449354 0.898881
vt 0.449452 0.899628
vt 0.593485 0.060481
vt 0.672119 0.663567
vt 0.677883 0.667637
vt 0.673085 0.683259
vt 0.662192 0.676310
s 0
usemtl Material
f 17/1/1 13/2/1 9/3/1
f 10/4/2 17/5/2 12/5/2
f 1/6/3 3/7/3 29/8/3
f 13/9/2 19/10/2 16/10/2
f 15/11/4 19/12/4 10/13/4
f 4/14/5 61/15/5 8/15/5
f 3/16/1 7/17/1 103/18/1
f 16/19/6 14/20/6 13/21/6
f 19/22/7 87/23/7 88/24/7
f 9/25/2 15/26/2 11/26/2
f 9/27/8 5/28/8 34/29/8
f 26/30/2 67/31/2 69/30/2
f 22/32/9 45/33/9 27/33/9
f 26/34/10 44/35/10 21/35/10
f 29/36/4 96/37/4 1/38/4
f 6/39/5 47/40/5 2/40/5
f 48/41/1 57/42/1 50/42/1
f 32/43/11 79/44/11 31/44/11
f 33/45/8 32/43/8 27/46/8
f 34/29/12 81/45/12 33/45/12
f 35/47/8 34/29/8 36/48/8
f 41/49/8 44/50/8 46/51/8
f 39/52/8 43/53/8 40/54/8
f 2/40/5 43/55/5 22/55/5
f 21/56/5 42/14/5 4/14/5
f 25/57/13 46/58/13 26/58/13
f 25/59/2 63/59/2 41/59/2
f 40/54/8 51/52/8 39/52/8
f 27/60/14 39/61/14 28/61/14
f 50/42/1 47/62/1 48/41/1
f 49/63/1 52/62/1 47/62/1
f 2/40/5 52/40/5 40/40/5
f 28/64/15 50/65/15 30/65/15
f 39/66/2 49/66/2 28/66/2
f 30/67/16 56/68/16 29/68/16
f 56/69/3 53/70/3 54/71/3
f 55/72/3 58/70/3 53/70/3
f 50/65/2 55/65/2 30/65/2
f 8/15/5 65/15/5 54/15/5
f 8/15/5 53/39/5 6/39/5
f 6/39/5 58/39/5 48/39/5
f 60/73/4 62/74/4 61/75/4
f 60/73/4 63/76/4 59/76/4
f 62/74/4 65/75/4 61/75/4
f 41/49/8 64/77/8 42/77/8
f 54/71/3 66/69/3 56/69/3
f 29/78/17 59/79/17 25/79/17
f 56/68/2 62/68/2 29/68/2
f 42/14/5 60/14/5 4/14/5
f 69/80/10 76/81/10 70/81/10
f 22/82/2 72/83/2 68/82/2
f 23/84/2 69/85/2 70/84/2
f 24/86/2 70/84/2 71/86/2
f 27/46/2 71/86/2 72/46/2
f 74/87/8 116/88/8 75/89/8
f 67/90/10 75/91/10 69/91/10
f 70/92/18 77/93/18 71/93/18
f 71/94/9 78/95/9 72/95/9
f 72/96/9 74/97/9 68/97/9
f 82/98/8 80/99/8 81/100/8
f 85/101/8 83/102/8 84/103/8
f 35/47/19 86/104/19 38/104/19
f 37/105/20 84/48/20 36/48/20
f 31/44/21 82/29/21 34/29/21
f 33/45/22 80/43/22 32/43/22
f 38/104/23 85/105/23 37/105/23
f 36/48/24 83/47/24 35/47/24
f 87/106/25 94/107/25 91/106/25
f 90/108/7 17/109/7 89/110/7
f 92/111/7 94/107/7 93/112/7
f 88/111/26 93/112/26 89/112/26
f 90/107/27 93/112/27 94/107/27
f 87/113/28 92/114/28 88/114/28
f 98/115/4 5/116/4 10/117/4
f 98/115/29 101/118/29 97/118/29
f 102/119/4 100/120/4 101/121/4
f 96/37/30 99/122/30 95/122/30
f 95/122/31 102/115/31 98/115/31
f 97/118/32 100/37/32 96/37/32
f 105/123/1 28/124/1 30/125/1
f 105/123/33 108/126/33 104/126/33
f 110/127/1 108/128/1 109/129/1
f 106/130/34 109/123/34 105/123/34
f 104/126/35 107/18/35 103/18/35
f 103/18/36 110/130/36 106/130/36
f 113/131/8 78/132/8 76/133/8
f 117/134/37 118/135/37 111/135/37
f 119/136/8 124/137/8 122/138/8
f 115/139/38 123/88/38 116/88/38
f 113/131/39 121/140/39 114/140/39
f 111/135/40 119/141/40 112/141/40
f 116/88/41 124/134/41 117/134/41
f 114/140/42 122/139/42 115/139/42
f 112/141/43 120/131/43 113/131/43
f 9/3/2 12/1/2 17/1/2
f 17/1/2 18/2/2 13/2/2
f 13/2/2 14/3/2 9/3/2
f 10/4/2 20/4/2 17/5/2
f 1/6/3 10/142/3 12/143/3
f 3/7/3 30/144/3 29/8/3
f 1/6/3 12/143/3 3/7/3
f 13/9/2 18/9/2 19/10/2
f 10/13/2 11/11/2 15/11/2
f 15/11/2 16/12/2 19/12/2
f 19/12/2 20/13/2 10/13/2
f 4/14/5 60/14/5 61/15/5
f 3/16/1 12/145/1 9/146/1
f 7/17/1 28/124/1 104/126/1
f 3/16/1 9/146/1 7/17/1
f 105/123/1 30/125/1 3/16/1
f 106/130/1 105/123/1 3/16/1
f 7/17/1 104/126/1 103/18/1
f 103/18/1 106/130/1 3/16/1
f 16/19/6 15/147/6 14/20/6
f 19/22/7 18/148/7 87/23/7
f 88/24/7 89/110/7 19/22/7
f 9/25/2 14/25/2 15/26/2
f 34/29/8 7/149/8 9/27/8
f 9/27/8 11/150/8 5/28/8
f 5/28/8 31/44/8 34/29/8
f 26/30/2 21/31/2 67/31/2
f 22/32/9 43/32/9 45/33/9
f 26/34/10 46/34/10 44/35/10
f 29/36/4 25/151/4 97/118/4
f 96/37/4 95/122/4 1/38/4
f 29/36/4 97/118/4 96/37/4
f 6/39/5 48/39/5 47/40/5
f 48/41/1 58/41/1 57/42/1
f 32/43/11 80/43/11 79/44/11
f 5/28/8 25/152/8 26/85/8
f 5/28/8 26/85/8 23/84/8
f 37/105/8 36/48/8 33/45/8
f 7/149/8 38/104/8 37/105/8
f 5/28/8 23/84/8 24/86/8
f 28/153/8 7/149/8 37/105/8
f 31/44/8 5/28/8 24/86/8
f 32/43/8 31/44/8 24/86/8
f 27/46/8 28/153/8 37/105/8
f 27/46/8 37/105/8 33/45/8
f 32/43/8 24/86/8 27/46/8
f 34/29/12 82/29/12 81/45/12
f 35/47/8 38/104/8 7/149/8
f 34/29/8 33/45/8 36/48/8
f 35/47/8 7/149/8 34/29/8
f 41/49/8 42/77/8 44/50/8
f 39/52/8 45/154/8 43/53/8
f 2/40/5 40/40/5 43/55/5
f 21/56/5 44/56/5 42/14/5
f 25/57/13 41/57/13 46/58/13
f 25/59/2 59/59/2 63/59/2
f 40/54/8 52/54/8 51/52/8
f 27/60/14 45/60/14 39/61/14
f 50/42/1 49/63/1 47/62/1
f 49/63/1 51/63/1 52/62/1
f 2/40/5 47/40/5 52/40/5
f 28/64/15 49/64/15 50/65/15
f 39/66/2 51/66/2 49/66/2
f 30/67/16 55/67/16 56/68/16
f 56/69/3 55/72/3 53/70/3
f 55/72/3 57/72/3 58/70/3
f 50/65/2 57/65/2 55/65/2
f 8/15/5 61/15/5 65/15/5
f 8/15/5 54/15/5 53/39/5
f 6/39/5 53/39/5 58/39/5
f 60/73/4 59/76/4 62/74/4
f 60/73/4 64/73/4 63/76/4
f 62/74/4 66/74/4 65/75/4
f 41/49/8 63/49/8 64/77/8
f 54/71/3 65/71/3 66/69/3
f 29/78/17 62/78/17 59/79/17
f 56/68/2 66/68/2 62/68/2
f 42/14/5 64/14/5 60/14/5
f 69/80/10 75/80/10 76/81/10
f 22/82/2 27/83/2 72/83/2
f 23/84/2 26/85/2 69/85/2
f 24/86/2 23/84/2 70/84/2
f 27/46/2 24/86/2 71/86/2
f 74/87/8 78/132/8 114/140/8
f 74/87/8 114/140/8 115/139/8
f 75/89/8 73/155/8 74/87/8
f 117/134/8 111/135/8 75/89/8
f 74/87/8 115/139/8 116/88/8
f 116/88/8 117/134/8 75/89/8
f 67/90/10 73/90/10 75/91/10
f 70/92/18 76/92/18 77/93/18
f 71/94/9 77/94/9 78/95/9
f 72/96/9 78/96/9 74/97/9
f 82/98/8 79/156/8 80/99/8
f 85/101/8 86/157/8 83/102/8
f 35/47/19 83/47/19 86/104/19
f 37/105/20 85/105/20 84/48/20
f 31/44/21 79/44/21 82/29/21
f 33/45/22 81/45/22 80/43/22
f 38/104/23 86/104/23 85/105/23
f 36/48/24 84/48/24 83/47/24
f 87/106/25 90/107/25 94/107/25
f 90/108/7 87/23/7 18/148/7
f 17/109/7 20/158/7 19/22/7
f 17/109/7 19/22/7 89/110/7
f 90/108/7 18/148/7 17/109/7
f 92/111/7 91/106/7 94/107/7
f 88/111/26 92/111/26 93/112/26
f 90/107/27 89/112/27 93/112/27
f 87/113/28 91/113/28 92/114/28
f 10/117/4 1/38/4 95/122/4
f 98/115/4 97/118/4 25/151/4
f 10/117/4 95/122/4 98/115/4
f 5/116/4 11/159/4 10/117/4
f 98/115/4 25/151/4 5/116/4
f 98/115/29 102/115/29 101/118/29
f 102/119/4 99/160/4 100/120/4
f 96/37/30 100/37/30 99/122/30
f 95/122/31 99/122/31 102/115/31
f 97/118/32 101/118/32 100/37/32
f 105/123/1 104/126/1 28/124/1
f 105/123/33 109/123/33 108/126/33
f 110/127/1 107/161/1 108/128/1
f 106/130/34 110/130/34 109/123/34
f 104/126/35 108/126/35 107/18/35
f 103/18/36 107/18/36 110/130/36
f 76/133/8 75/89/8 111/135/8
f 76/133/8 111/135/8 112/141/8
f 78/132/8 77/162/8 76/133/8
f 113/131/8 114/140/8 78/132/8
f 76/133/8 112/141/8 113/131/8
f 117/134/37 124/134/37 118/135/37
f 121/163/8 120/164/8 119/136/8
f 119/136/8 118/165/8 124/137/8
f 124/137/8 123/166/8 122/138/8
f 122/138/8 121/163/8 119/136/8
f 115/139/38 122/139/38 123/88/38
f 113/131/39 120/131/39 121/140/39
f 111/135/40 118/135/40 119/141/40
f 116/88/41 123/88/41 124/134/41
f 114/140/42 121/140/42 122/139/42
f 112/141/43 119/141/43 120/131/43
