# Blender 4.2.2 LTS
# www.blender.org
mtllib collage2.mtl
o Cube
v 3.000000 0.000000 -4.500000
v -3.000000 5.355000 -4.500000
v 3.000000 0.000000 4.500000
v -3.000000 0.000000 -4.500000
v 3.000000 5.355000 -4.500000
v -3.000000 0.000000 4.500000
v 3.000000 7.650000 -4.500000
v -3.000000 7.650000 4.500000
v 3.000000 7.650000 4.500000
v -3.000000 7.650000 -4.500000
v 0.000000 9.000000 -4.500000
v 3.000000 7.650000 -4.500000
v 3.000000 7.650000 4.500000
v 0.000000 9.000000 4.500000
v -3.000000 7.650000 -4.500000
v 0.000000 9.000000 -4.500000
v 0.000000 9.000000 4.500000
v -3.000000 7.650000 4.500000
v 3.000000 0.000000 -9.500000
v -3.000000 0.000000 -9.500000
v 3.000000 4.551750 -4.500000
v -3.000000 4.551750 -4.500000
v 3.000000 4.551750 -9.500000
v -3.000000 4.551750 -9.500000
v 3.000000 4.551750 -9.500000
v 3.000000 5.355000 -4.500000
v -3.000000 5.355000 -4.500000
v -3.000000 4.551750 -9.500000
v 0.300000 8.865000 -4.500000
v 0.300000 8.865000 4.500000
v -0.300000 8.865000 4.500000
v -0.300000 8.865000 -4.500000
v 3.000000 4.324162 -4.500000
v -3.000000 4.324162 -4.500000
v 3.000000 4.324162 -9.500000
v -3.000000 4.324162 -9.500000
v 3.000000 0.000000 0.789745
v 3.000000 0.000000 -1.168608
v 3.000000 3.695799 0.829323
v 3.000000 3.735323 -1.113001
v 3.000000 5.009769 -2.302794
v 3.000000 2.418838 -2.353551
v 3.000000 2.407147 -3.200096
v 3.000000 5.013367 -3.173034
v 3.000000 5.093591 2.126890
v 3.000000 5.083085 2.940825
v 3.000000 2.595176 2.920252
v 3.000000 2.614007 2.044841
v 3.000000 0.987183 -4.500000
v 3.000000 0.987713 -9.500000
v -3.000000 0.975020 -9.500000
v -3.000000 0.999624 -4.500000
v 0.676898 5.026432 4.500000
v -0.580315 5.030597 4.500000
v -0.581642 2.724036 4.500000
v 0.705846 2.739676 4.500000
v 2.700000 0.000000 0.789745
v 2.700000 0.000000 -1.168608
v 2.700000 3.695799 0.829323
v 2.700000 3.735323 -1.113001
v 2.800000 5.009769 -2.302794
v 2.800000 2.418838 -2.353551
v 2.800000 2.407147 -3.200096
v 2.800000 5.013367 -3.173034
v 2.800000 5.093591 2.126890
v 2.800000 5.083085 2.940825
v 2.800000 2.595176 2.920252
v 2.800000 2.614007 2.044841
v 0.676898 5.026432 4.300000
v -0.580315 5.030597 4.300000
v -0.581642 2.724036 4.300000
v 0.705846 2.739676 4.300000
v 3.300000 0.987183 -4.500000
v 3.300000 0.000000 -4.500000
v 3.300000 0.987713 -9.500000
v 3.300000 0.000000 -9.500000
v 3.000000 0.000000 -9.800000
v -3.000000 0.000000 -9.800000
v 3.000000 0.987713 -9.800000
v -3.000000 0.975020 -9.800000
v 3.300000 0.987713 -9.800000
v 3.300000 0.000000 -9.800000
v -3.300000 0.999624 -4.500000
v -3.300000 0.000000 -4.500000
v -3.300000 0.975020 -9.500000
v -3.300000 0.000000 -9.500000
v -3.300000 0.975020 -9.800000
v -3.300000 0.000000 -9.800000
vn -0.0000 -0.0000 -1.0000
vn -0.0000 1.0000 -0.0000
vn -0.0000 -0.0000 1.0000
vn 0.4104 0.9119 -0.0000
vn -0.4104 0.9119 -0.0000
vn 1.0000 -0.0000 -0.0000
vn -1.0000 -0.0000 -0.0000
vn -0.0000 0.9873 -0.1586
vn -0.0000 -1.0000 -0.0000
vn -0.0000 -0.0149 0.9999
vn -0.0000 0.9998 0.0215
vn -0.0000 0.0196 -0.9998
vn -0.0121 0.9999 -0.0000
vn -0.0000 0.0107 -0.9999
vn -0.0000 -0.9998 -0.0203
vn -0.0000 -0.9999 -0.0129
vn -0.0000 -1.0000 -0.0041
vn -0.0000 0.9999 -0.0138
vn -0.0000 -0.0331 0.9995
vn -0.0000 0.0083 -1.0000
vn -0.0000 -0.0104 0.9999
vn -0.0033 -1.0000 -0.0000
vn -0.9999 -0.0127 -0.0000
vn 1.0000 -0.0006 -0.0000
vn -0.0000 1.0000 0.0001
vn -0.0021 1.0000 -0.0000
vn -0.0000 1.0000 -0.0049
vn -0.0000 0.8584 -0.5130
vn -0.0000 0.8584 0.5130
vt 0.435452 0.395587
vt 0.200105 0.453354
vt 0.007548 0.395587
vt 0.335005 0.857235
vt 0.361129 0.857235
vt 0.418372 0.418297
vt 0.191090 0.474084
vt 0.005132 0.418297
vt 0.398707 0.929737
vt 0.006667 0.853323
vt 0.398707 0.853323
vt 0.007824 0.566853
vt 0.413437 0.385060
vt 0.411575 0.566853
vt 0.427411 0.388808
vt 0.009679 0.577769
vt 0.007743 0.388808
vt 0.387254 0.857235
vt 0.004906 0.992495
vt 0.389679 0.721659
vt 0.388986 0.989802
vt 0.328225 0.393251
vt 0.328225 0.433438
vt 0.009612 0.393251
vt 0.032691 0.498729
vt 0.384544 0.498729
vt 0.032691 0.536924
vt 0.360556 0.816447
vt 0.368134 0.649968
vt 0.368134 0.816447
vt 0.238447 0.926277
vt 0.246025 0.626615
vt 0.246025 0.926277
vt 0.413378 0.857235
vt 0.398239 0.993691
vt 0.002990 0.993691
vt 0.245205 0.858672
vt 0.004400 0.860207
vt 0.004400 0.850174
vt 0.401147 0.597197
vt 0.020094 0.585840
vt 0.391154 0.378685
vt 0.391154 0.585840
vt 0.439502 0.857235
vt 0.277740 0.635642
vt 0.292723 0.935282
vt 0.277740 0.935128
vt 0.282539 0.971372
vt 0.267556 0.672039
vt 0.282539 0.671886
vt 0.078941 0.641790
vt 0.245419 0.641790
vt 0.253682 0.651780
vt 0.246104 0.818259
vt 0.246104 0.651780
vt 0.250404 0.816132
vt 0.252848 0.598170
vt 0.304915 0.728215
vt 0.302684 0.859748
vt 0.003767 0.598170
vt 0.073181 0.737687
vt 0.072277 0.868386
vt 0.340923 0.857040
vt 0.399231 0.988145
vt 0.108042 0.875815
vt 0.111647 0.743451
vt 0.003767 0.988145
vt 0.165058 0.814395
vt 0.809988 0.571023
vt 0.760390 0.462219
vt 0.809988 0.462219
vt 0.007651 0.613856
vt 0.393288 0.985364
vt 0.005869 0.988251
vt 0.385869 0.603194
vt 0.013608 0.989009
vt 0.013962 0.605289
vt 0.247112 0.740987
vt 0.162299 0.740182
vt 0.398239 0.599992
vt 0.951857 0.391954
vt 0.728816 0.017202
vt 0.954708 0.014315
vt 0.166797 0.598170
vt 0.815803 0.980556
vt 0.717189 0.620481
vt 0.819298 0.621782
vt 0.677625 0.976929
vt 0.573294 0.616205
vt 0.680139 0.615785
vt 0.342112 0.724000
vt 0.817376 0.979919
vt 0.715417 0.616048
vt 0.819283 0.616853
vt 0.162386 0.858886
vt 0.721200 0.544153
vt 0.997615 0.440407
vt 0.997504 0.541971
vt 0.245419 0.941451
vt 0.078941 0.941451
vt 0.723064 0.534538
vt 0.989891 0.510523
vt 0.989891 0.534538
vt 0.989328 0.579912
vt 0.718551 0.485409
vt 0.989596 0.483031
vt 0.763300 0.457332
vt 0.812897 0.566195
vt 0.763300 0.566195
vt 0.909694 0.503270
vt 0.942759 0.552868
vt 0.909694 0.552868
vt 0.738675 0.530354
vt 0.984275 0.497289
vt 0.984275 0.530354
vt 0.848193 0.579025
vt 0.815128 0.470163
vt 0.848193 0.470163
vt 0.809308 0.435768
vt 0.842373 0.543231
vt 0.809308 0.543231
vt 0.993048 0.448612
vt 0.722969 0.576421
vt 0.723073 0.452737
vt 0.888929 0.502723
vt 0.855864 0.552320
vt 0.855864 0.502723
vt 0.989991 0.487549
vt 0.726970 0.537146
vt 0.726970 0.487549
vt 0.102787 0.563158
vt 0.152385 0.673333
vt 0.102787 0.673333
vt 0.924375 0.550860
vt 0.874777 0.443397
vt 0.924375 0.443397
vt 0.312771 0.848988
vt 0.074717 0.756233
vt 0.074717 0.701708
vt 0.242896 0.453354
vt 0.221500 0.459772
vt 0.232414 0.474084
vt 0.211752 0.480283
vt 0.006667 0.929737
vt 0.009687 0.385060
vt 0.429346 0.577769
vt 0.009063 0.725695
vt 0.360556 0.649968
vt 0.238447 0.626615
vt 0.002990 0.599992
vt 0.401147 0.996787
vt 0.004400 0.996787
vt 0.004400 0.895617
vt 0.004400 0.655678
vt 0.004400 0.597197
vt 0.020094 0.378685
vt 0.292723 0.635795
vt 0.267556 0.971526
vt 0.253682 0.818259
vt 0.399231 0.598170
vt 0.760390 0.571023
vt 0.394629 0.609886
vt 0.386574 0.986718
vt 0.725181 0.391231
vt 0.714863 0.977301
vt 0.578574 0.974592
vt 0.715504 0.980134
vt 0.721864 0.442834
vt 0.723064 0.510523
vt 0.718189 0.582637
vt 0.812897 0.457332
vt 0.942759 0.503270
vt 0.738675 0.497289
vt 0.815128 0.579025
vt 0.842373 0.435768
vt 0.993260 0.574326
vt 0.888929 0.552320
vt 0.989991 0.537146
vt 0.152385 0.563158
vt 0.874777 0.550860
vt 0.312771 0.988200
vt 0.062188 0.988200
vt 0.062188 0.848988
vt 0.062188 0.756233
vt 0.062188 0.598405
vt 0.312771 0.598405
vt 0.062188 0.701708
s 0
usemtl Material
f 10/1/1 29/2/1 12/3/1
f 8/4/2 15/4/2 10/4/2
f 11/5/2 17/5/2 14/5/2
f 9/6/3 31/7/3 18/8/3
f 10/9/1 5/10/1 2/11/1
f 30/12/4 12/13/4 29/14/4
f 32/15/5 18/16/5 31/17/5
f 7/18/2 13/18/2 9/18/2
f 33/19/6 50/20/6 35/21/6
f 22/22/7 27/23/7 28/24/7
f 21/25/6 23/26/6 26/27/6
f 22/28/7 36/29/7 34/30/7
f 24/31/1 35/32/1 36/33/1
f 24/34/2 25/34/2 23/34/2
f 9/35/3 8/36/3 53/37/3
f 22/38/7 34/39/7 6/40/7
f 26/41/8 28/42/8 27/43/8
f 2/44/2 26/44/2 27/44/2
f 14/45/4 29/46/4 11/47/4
f 16/48/5 31/49/5 17/50/5
f 4/51/9 86/52/9 20/52/9
f 20/52/9 88/52/9 78/52/9
f 33/53/6 23/54/6 21/55/6
f 40/56/10 58/57/10 38/57/10
f 40/56/6 42/58/6 41/59/6
f 3/60/6 47/61/6 46/62/6
f 44/63/6 12/64/6 45/65/6
f 48/66/11 67/61/11 47/61/11
f 13/67/6 46/62/6 45/65/6
f 42/58/12 61/59/12 41/59/12
f 45/65/6 48/66/6 39/68/6
f 1/69/3 73/70/3 49/71/3
f 50/72/1 36/73/1 35/74/1
f 52/75/7 36/76/7 51/77/7
f 56/78/13 71/79/13 55/79/13
f 55/79/3 3/80/3 56/78/3
f 60/81/6 57/82/6 58/83/6
f 37/84/14 59/68/14 39/68/14
f 39/68/15 60/56/15 40/56/15
f 64/85/6 62/86/6 63/87/6
f 65/88/6 67/89/6 68/90/6
f 46/62/16 65/65/16 45/65/16
f 41/59/17 64/63/17 44/63/17
f 43/91/18 62/58/18 42/58/18
f 45/65/19 68/66/19 48/66/19
f 47/61/20 66/62/20 46/62/20
f 44/63/21 63/91/21 43/91/21
f 69/92/3 71/93/3 72/94/3
f 54/95/22 69/37/22 53/37/22
f 53/37/23 72/78/23 56/78/23
f 55/79/24 70/95/24 54/95/24
f 73/96/6 76/97/6 75/98/6
f 19/99/9 74/100/9 1/100/9
f 19/99/9 82/99/9 76/99/9
f 49/101/25 75/102/25 50/103/25
f 80/104/1 77/105/1 78/106/1
f 79/107/1 82/108/1 77/109/1
f 20/52/9 77/99/9 19/99/9
f 75/110/2 79/111/2 50/112/2
f 50/113/26 80/114/26 51/115/26
f 76/116/6 81/117/6 75/118/6
f 85/119/7 88/120/7 86/121/7
f 84/122/7 85/123/7 86/124/7
f 80/125/2 85/126/2 51/127/2
f 51/128/27 83/129/27 52/130/27
f 52/131/3 84/132/3 4/133/3
f 78/134/1 87/135/1 80/136/1
f 4/137/9 58/138/9 57/139/9
f 10/1/2 15/1/2 32/140/2
f 16/141/2 11/141/2 29/2/2
f 10/1/28 32/140/28 16/141/28
f 10/1/1 16/141/1 29/2/1
f 12/3/2 7/3/2 10/1/2
f 8/4/2 18/4/2 15/4/2
f 11/5/2 16/5/2 17/5/2
f 9/6/2 13/6/2 30/142/2
f 14/143/2 17/143/2 31/7/2
f 9/6/29 30/142/29 14/143/29
f 9/6/3 14/143/3 31/7/3
f 18/8/2 8/8/2 9/6/2
f 10/9/1 7/144/1 5/10/1
f 30/12/4 13/145/4 12/13/4
f 32/15/5 15/146/5 18/16/5
f 7/18/2 12/18/2 13/18/2
f 33/19/6 49/147/6 50/20/6
f 22/22/2 2/23/2 27/23/2
f 28/24/2 24/24/2 22/22/2
f 26/27/2 5/27/2 21/25/2
f 23/26/2 25/26/2 26/27/2
f 22/28/7 24/148/7 36/29/7
f 24/31/1 23/149/1 35/32/1
f 24/34/2 28/34/2 25/34/2
f 56/78/3 3/80/3 9/35/3
f 8/36/3 6/150/3 55/79/3
f 8/36/3 55/79/3 54/95/3
f 53/37/3 56/78/3 9/35/3
f 8/36/3 54/95/3 53/37/3
f 6/40/7 8/151/7 10/152/7
f 6/40/7 10/152/7 2/153/7
f 52/154/7 4/155/7 6/40/7
f 34/39/7 52/154/7 6/40/7
f 6/40/7 2/153/7 22/38/7
f 26/41/8 25/156/8 28/42/8
f 2/44/2 5/44/2 26/44/2
f 14/45/4 30/157/4 29/46/4
f 16/48/5 32/158/5 31/49/5
f 4/51/9 84/51/9 86/52/9
f 20/52/9 86/52/9 88/52/9
f 33/53/6 35/159/6 23/54/6
f 40/56/10 60/56/10 58/57/10
f 40/56/6 38/57/6 1/160/6
f 1/160/6 43/91/6 42/58/6
f 41/59/6 39/68/6 40/56/6
f 40/56/6 1/160/6 42/58/6
f 3/60/6 37/84/6 39/68/6
f 3/60/6 39/68/6 48/66/6
f 46/62/6 13/67/6 3/60/6
f 3/60/6 48/66/6 47/61/6
f 45/65/6 39/68/6 41/59/6
f 44/63/6 43/91/6 1/160/6
f 45/65/6 41/59/6 44/63/6
f 12/64/6 13/67/6 45/65/6
f 44/63/6 1/160/6 12/64/6
f 48/66/11 68/66/11 67/61/11
f 42/58/12 62/58/12 61/59/12
f 1/69/3 74/161/3 73/70/3
f 50/72/1 51/162/1 36/73/1
f 52/75/7 34/163/7 36/76/7
f 56/78/13 72/78/13 71/79/13
f 55/79/3 6/150/3 3/80/3
f 60/81/6 59/164/6 57/82/6
f 37/84/14 57/84/14 59/68/14
f 39/68/15 59/68/15 60/56/15
f 64/85/6 61/165/6 62/86/6
f 65/88/6 66/166/6 67/89/6
f 46/62/16 66/62/16 65/65/16
f 41/59/17 61/59/17 64/63/17
f 43/91/18 63/91/18 62/58/18
f 45/65/19 65/65/19 68/66/19
f 47/61/20 67/61/20 66/62/20
f 44/63/21 64/63/21 63/91/21
f 69/92/3 70/167/3 71/93/3
f 54/95/22 70/95/22 69/37/22
f 53/37/23 69/37/23 72/78/23
f 55/79/24 71/79/24 70/95/24
f 73/96/6 74/168/6 76/97/6
f 19/99/9 76/99/9 74/100/9
f 19/99/9 77/99/9 82/99/9
f 49/101/25 73/169/25 75/102/25
f 80/104/1 79/170/1 77/105/1
f 79/107/1 81/171/1 82/108/1
f 20/52/9 78/52/9 77/99/9
f 75/110/2 81/172/2 79/111/2
f 50/113/26 79/173/26 80/114/26
f 76/116/6 82/174/6 81/117/6
f 85/119/7 87/175/7 88/120/7
f 84/122/7 83/176/7 85/123/7
f 80/125/2 87/177/2 85/126/2
f 51/128/27 85/178/27 83/129/27
f 52/131/3 83/179/3 84/132/3
f 78/134/1 88/180/1 87/135/1
f 4/137/9 20/181/9 19/182/9
f 1/183/9 38/184/9 58/138/9
f 4/137/9 19/182/9 1/183/9
f 3/185/9 6/186/9 4/137/9
f 57/139/9 37/187/9 3/185/9
f 4/137/9 1/183/9 58/138/9
f 57/139/9 3/185/9 4/137/9
