# Blender 4.2.2 LTS
# www.blender.org
mtllib key.mtl
o Plane
v -0.000000 0.805402 0.252762
v -0.000000 0.766247 0.307533
v -0.000000 0.770384 0.022858
v -0.000000 0.810399 0.099943
v -0.000000 0.564596 0.247421
v -0.000000 0.657597 0.380927
v -0.000000 0.757831 0.396800
v -0.000000 0.864151 0.324615
v -0.000000 0.905546 0.175049
v -0.000000 0.844515 -0.017579
v -0.000000 0.741821 -0.068759
v -0.000000 0.643864 -0.045085
v -0.000000 0.559216 0.091791
v -0.000000 0.504480 0.079486
v -0.000000 0.451173 0.105617
v 0.000000 -0.350663 0.099617
v 0.000000 -0.370899 0.087058
v 0.000000 -0.432386 0.084494
v 0.000000 -0.460135 0.104577
v 0.000000 -0.879143 0.096451
v 0.000000 -0.917410 0.132040
v 0.000000 -0.897569 0.172413
v 0.000000 -0.846430 0.193724
v 0.000000 -0.788637 0.203250
v 0.000000 -0.790519 0.275415
v 0.000000 -0.736515 0.286337
v 0.000000 -0.737477 0.322519
v 0.000000 -0.796690 0.323360
v 0.000000 -0.797579 0.370266
v 0.000000 -0.705417 0.372710
v 0.000000 -0.699122 0.326693
v 0.000000 -0.667015 0.325231
v 0.000000 -0.657226 0.381703
v 0.000000 -0.558746 0.382141
v 0.000000 -0.557721 0.338841
v 0.000000 -0.605538 0.338816
v 0.000000 -0.605629 0.288967
v 0.000000 -0.556707 0.286608
v 0.000000 -0.553542 0.206523
v 0.000000 -0.529481 0.196817
v 0.000000 -0.443434 0.197954
v 0.000000 -0.405579 0.215344
v 0.000000 -0.349537 0.209368
v 0.000000 -0.340526 0.190262
v -0.000000 0.449348 0.203761
v -0.000000 0.497130 0.243966
v -0.000000 0.543027 0.226628
v -0.000000 0.712816 0.006152
v -0.000000 0.667265 0.041740
v -0.000000 0.647046 0.132729
v -0.000000 0.668534 0.256921
v -0.000000 0.695919 0.309181
v -0.000000 0.731805 0.318881
v 0.067619 0.667265 0.041740
v 0.067619 0.647046 0.132729
v 0.067619 0.810399 0.099943
v 0.067619 0.770384 0.022858
v 0.067619 0.712816 0.006152
v 0.067619 0.564596 0.247421
v 0.067619 0.657597 0.380927
v 0.067619 0.757831 0.396800
v 0.067619 0.864151 0.324615
v 0.067619 0.905546 0.175049
v 0.067619 0.844515 -0.017579
v 0.067619 0.741821 -0.068759
v 0.067619 0.643864 -0.045085
v 0.067619 0.559216 0.091791
v 0.067619 0.504480 0.079486
v 0.067619 0.451173 0.105617
v 0.067620 -0.350663 0.099617
v 0.067620 -0.370899 0.087058
v 0.067620 -0.432386 0.084494
v 0.067620 -0.460135 0.104577
v 0.067620 -0.879143 0.096451
v 0.067620 -0.917410 0.132040
v 0.067620 -0.897569 0.172413
v 0.067620 -0.846430 0.193724
v 0.067620 -0.788637 0.203250
v 0.067620 -0.790519 0.275415
v 0.067620 -0.736515 0.286337
v 0.067620 -0.737477 0.322519
v 0.067620 -0.796690 0.323360
v 0.067620 -0.797579 0.370266
v 0.067620 -0.705417 0.372710
v 0.067620 -0.699122 0.326693
v 0.067620 -0.667015 0.325231
v 0.067620 -0.657226 0.381703
v 0.067620 -0.558746 0.382141
v 0.067620 -0.557721 0.338841
v 0.067620 -0.605538 0.338816
v 0.067620 -0.605629 0.288967
v 0.067620 -0.556707 0.286608
v 0.067620 -0.553542 0.206523
v 0.067620 -0.529481 0.196817
v 0.067620 -0.443434 0.197954
v 0.067620 -0.405579 0.215344
v 0.067620 -0.349537 0.209368
v 0.067620 -0.340526 0.190262
v 0.067619 0.449348 0.203761
v 0.067619 0.497130 0.243966
v 0.067619 0.543027 0.226628
v 0.067619 0.805402 0.252762
v 0.067619 0.766247 0.307533
v 0.067619 0.668534 0.256921
v 0.067619 0.695919 0.309181
v 0.067619 0.731805 0.318881
vn 1.0000 -0.0000 -0.0000
vn -1.0000 -0.0000 -0.0000
vn -0.0000 -0.3129 -0.9498
vn -0.0000 -0.0142 -0.9999
vn -0.0000 0.9762 0.2169
vn -0.0000 -0.9998 -0.0189
vn -0.0000 -0.8875 0.4607
vn -0.0000 -0.0265 0.9996
vn -0.0000 0.6157 0.7880
vn -0.0000 0.9908 0.1355
vn -0.0000 -0.2787 0.9604
vn -0.0000 0.0455 0.9990
vn -0.0000 -0.8205 0.5716
vn -0.0000 -0.9853 0.1708
vn -0.0000 -0.1564 0.9877
vn -0.0000 -0.0044 1.0000
vn -0.0000 0.5617 0.8273
vn -0.0000 0.9997 0.0237
vn -0.0000 0.9638 0.2667
vn -0.0000 0.0005 -1.0000
vn -0.0000 0.9533 -0.3020
vn -0.0000 1.0000 -0.0018
vn -0.0000 0.4460 -0.8950
vn -0.0000 0.0482 0.9988
vn -0.0000 -0.2349 -0.9720
vn -0.0000 0.9992 0.0395
vn -0.0000 -0.8505 -0.5260
vn -0.0000 0.3741 0.9274
vn -0.0000 0.2193 -0.9757
vn -0.0000 -0.0132 0.9999
vn -0.0000 -0.4402 -0.8979
vn -0.0000 -0.4174 0.9087
vn -0.0000 0.0075 -1.0000
vn -0.0000 0.1060 0.9944
vn -0.0000 0.5273 -0.8497
vn -0.0000 0.9045 0.4266
vn -0.0000 0.0417 -0.9991
vn -0.0000 -0.0171 0.9999
vn -0.0000 -0.5863 -0.8101
vn -0.0000 -0.6438 0.7652
vn -0.0000 0.0194 -0.9998
vn -0.0000 0.3534 0.9355
vn -0.0000 -0.6810 -0.7323
vn -0.0000 -0.6940 0.7200
vn -0.0000 -0.8975 0.4411
vn -0.0000 -0.9995 -0.0327
vn -0.0000 -0.3847 0.9231
vn -0.0000 -0.8135 -0.5816
vn -0.0000 -0.1626 0.9867
vn -0.0000 0.9854 -0.1705
vn -0.0000 -0.9997 -0.0261
vn -0.0000 0.8858 -0.4642
vn -0.0000 -0.1982 0.9802
vn -0.0000 0.2609 -0.9654
vn -0.0000 -0.9996 -0.0266
vt 0.047227 0.412475
vt 0.067925 0.337692
vt 0.121085 0.301600
vt 0.171201 0.309536
vt 0.217702 0.376290
vt 0.228487 0.386686
vt 0.251435 0.378017
vt 0.275326 0.398120
vt 0.670263 0.404869
vt 0.674769 0.395316
vt 0.702790 0.392328
vt 0.721717 0.401023
vt 0.764740 0.401591
vt 0.776771 0.396738
vt 0.778354 0.356696
vt 0.802815 0.355516
vt 0.802769 0.330592
vt 0.778860 0.330579
vt 0.779373 0.308930
vt 0.828613 0.309149
vt 0.833507 0.337385
vt 0.849561 0.336653
vt 0.852709 0.313645
vt 0.898790 0.314867
vt 0.898345 0.338320
vt 0.868739 0.338740
vt 0.868257 0.356832
vt 0.895259 0.362293
vt 0.894318 0.398375
vt 0.923215 0.403138
vt 0.948784 0.413794
vt 0.176477 0.433636
vt 0.165733 0.371539
vt 0.152040 0.345410
vt 0.134097 0.340559
vt 0.116877 0.346234
vt 0.097299 0.373619
vt 0.094801 0.450029
vt 0.114808 0.488571
vt 0.077743 0.508790
vt 0.129089 0.534379
vt 0.178068 0.522543
vt 0.220392 0.454105
vt 0.247760 0.460257
vt 0.274414 0.447191
vt 0.675331 0.450192
vt 0.685449 0.456471
vt 0.716193 0.457753
vt 0.730067 0.447711
vt 0.939572 0.451774
vt 0.958705 0.433980
vt 0.166367 0.479130
vt 0.143592 0.496924
vt 0.562953 0.418140
vt 0.562953 0.439380
vt 0.520578 0.439380
vt 0.520578 0.418140
vt 0.551804 0.584667
vt 0.514759 0.584667
vt 0.514759 0.542292
vt 0.551804 0.542292
vt 0.489126 0.403450
vt 0.546361 0.403450
vt 0.546361 0.445825
vt 0.489126 0.445825
vt 0.650804 0.449874
vt 0.621491 0.449874
vt 0.621491 0.407499
vt 0.650804 0.407499
vt 0.362723 0.403450
vt 0.412402 0.403450
vt 0.412402 0.445825
vt 0.362723 0.445825
vt 0.267012 0.402498
vt 0.324772 0.402498
vt 0.324772 0.444873
vt 0.267012 0.444873
vt 0.769143 0.408245
vt 0.796536 0.408245
vt 0.796536 0.450621
vt 0.769143 0.450621
vt 0.637300 0.445309
vt 0.608397 0.445309
vt 0.608397 0.402934
vt 0.637300 0.402934
vt 0.732588 0.408245
vt 0.732588 0.450621
vt 0.597167 0.443779
vt 0.577118 0.443779
vt 0.577118 0.401404
vt 0.597167 0.401404
vt 0.340661 0.404137
vt 0.427563 0.404137
vt 0.427563 0.446513
vt 0.340661 0.446513
vt 0.545352 0.446981
vt 0.509667 0.446981
vt 0.509667 0.404605
vt 0.545352 0.404605
vt 0.326509 0.402305
vt 0.389742 0.402305
vt 0.389742 0.444681
vt 0.326509 0.444681
vt 0.375837 0.404463
vt 0.437488 0.404463
vt 0.437488 0.446839
vt 0.375837 0.446839
vt 0.314347 0.404019
vt 0.378626 0.404019
vt 0.378626 0.446394
vt 0.314347 0.446394
vt 0.501691 0.446563
vt 0.474549 0.446563
vt 0.474549 0.404188
vt 0.501691 0.404188
vt 0.395256 0.403391
vt 0.489428 0.403391
vt 0.489428 0.445767
vt 0.395256 0.445767
vt 0.560898 0.409554
vt 0.560898 0.439490
vt 0.518523 0.439490
vt 0.518523 0.409554
vt 0.275234 0.403391
vt 0.275234 0.445767
vt 0.651222 0.412685
vt 0.651222 0.443918
vt 0.608846 0.443918
vt 0.608846 0.412685
vt 0.380842 0.403353
vt 0.446581 0.403353
vt 0.446581 0.445728
vt 0.380842 0.445728
vt 0.528468 0.408723
vt 0.528468 0.439268
vt 0.486093 0.439268
vt 0.486093 0.408723
vt 0.320189 0.403353
vt 0.320189 0.445728
vt 0.366807 0.400815
vt 0.417021 0.400816
vt 0.417021 0.443191
vt 0.366807 0.443191
vt 0.383570 0.404828
vt 0.466128 0.404828
vt 0.466128 0.447203
vt 0.383570 0.447203
vt 0.445315 0.403441
vt 0.460069 0.403441
vt 0.460069 0.445816
vt 0.445315 0.445816
vt 0.379358 0.404168
vt 0.413973 0.404168
vt 0.413973 0.446543
vt 0.379358 0.446543
vt 0.430577 0.402841
vt 0.484468 0.402841
vt 0.484468 0.445216
vt 0.430577 0.445216
vt 0.346726 0.404168
vt 0.346726 0.446543
vt 0.406339 0.402841
vt 0.406339 0.445216
vt 0.247835 0.405215
vt 0.667080 0.405215
vt 0.667080 0.440595
vt 0.247835 0.440595
vt 0.371450 0.402841
vt 0.371450 0.445216
vt 0.375334 0.403059
vt 0.388358 0.403059
vt 0.388358 0.445434
vt 0.375334 0.445434
vt 0.560723 0.405718
vt 0.572794 0.405718
vt 0.572794 0.448093
vt 0.560723 0.448093
vt 0.336768 0.403059
vt 0.336768 0.445434
vt 0.246623 0.406380
vt 0.675166 0.406380
vt 0.675166 0.443082
vt 0.246623 0.443082
vt 0.319965 0.403059
vt 0.319965 0.445434
vt 0.343541 0.400185
vt 0.374709 0.400185
vt 0.374709 0.442561
vt 0.343541 0.442561
vt 0.258535 0.403447
vt 0.521078 0.403447
vt 0.521077 0.445822
vt 0.258535 0.445822
vt 0.315359 0.400185
vt 0.315359 0.442561
vt 0.375422 0.399641
vt 0.398371 0.399641
vt 0.398371 0.442017
vt 0.375422 0.442017
vt 0.301206 0.400185
vt 0.301206 0.442561
vt 0.612750 0.413641
vt 0.612750 0.439620
vt 0.570374 0.439620
vt 0.570374 0.413641
vt 0.267298 0.403450
vt 0.267298 0.445825
vt 0.506037 0.400277
vt 0.538713 0.400277
vt 0.538713 0.442653
vt 0.506037 0.442653
vt 0.234454 0.403450
vt 0.234454 0.445825
vt 0.469566 0.400277
vt 0.469566 0.442653
vt 0.623939 0.403450
vt 0.623939 0.445825
vt 0.542504 0.403704
vt 0.587583 0.403704
vt 0.587583 0.446080
vt 0.542504 0.446080
vt 0.656381 0.403450
vt 0.656381 0.445825
vt 0.420145 0.446053
vt 0.386002 0.446053
vt 0.386002 0.403677
vt 0.420145 0.403677
vt 0.557134 0.421587
vt 0.557134 0.444327
vt 0.514759 0.444327
vt 0.514759 0.421587
vt 0.516064 0.446890
vt 0.493462 0.446890
vt 0.493462 0.404514
vt 0.516064 0.404514
s 0
usemtl Material.001
f 63/1/1 62/2/1 61/3/1 60/4/1 59/5/1 101/6/1 100/7/1 99/8/1 98/9/1 97/10/1 96/11/1 95/12/1 94/13/1 93/14/1 92/15/1 91/16/1 90/17/1 89/18/1 88/19/1 87/20/1 86/21/1 85/22/1 84/23/1 83/24/1 82/25/1 81/26/1 80/27/1 79/28/1 78/29/1 77/30/1 76/31/1 55/32/1 104/33/1 105/34/1 106/35/1 103/36/1 102/37/1 56/38/1
f 3/39/2 4/38/2 9/1/2 10/40/2 11/41/2 12/42/2 13/43/2 14/44/2 15/45/2 16/46/2 17/47/2 18/48/2 19/49/2 20/50/2 21/51/2 22/31/2 50/32/2 49/52/2 48/53/2
f 9/1/2 4/38/2 1/37/2 2/36/2 53/35/2 52/34/2 51/33/2 50/32/2 22/31/2 23/30/2 24/29/2 25/28/2 26/27/2 27/26/2 28/25/2 29/24/2 30/23/2 31/22/2 32/21/2 33/20/2 34/19/2 35/18/2 36/17/2 37/16/2 38/15/2 39/14/2 40/13/2 41/12/2 42/11/2 43/10/2 44/9/2 45/8/2 46/7/2 47/6/2 5/5/2 6/4/2 7/3/2 8/2/2
f 57/39/1 58/53/1 54/52/1 55/32/1 76/31/1 75/51/1 74/50/1 73/49/1 72/48/1 71/47/1 70/46/1 69/45/1 68/44/1 67/43/1 66/42/1 65/41/1 64/40/1 63/1/1 56/38/1
f 53/54/3 2/55/3 103/56/3 106/57/3
f 28/58/4 27/59/4 81/60/4 82/61/4
f 49/62/5 50/63/5 55/64/5 54/65/5
f 29/66/6 28/67/6 82/68/6 83/69/6
f 4/70/7 3/71/7 57/72/7 56/73/7
f 30/74/8 29/75/8 83/76/8 84/77/8
f 48/78/9 49/79/9 54/80/9 58/81/9
f 31/82/10 30/83/10 84/84/10 85/85/10
f 3/86/11 48/78/11 58/81/11 57/87/11
f 32/88/12 31/89/12 85/90/12 86/91/12
f 6/92/13 5/93/13 59/94/13 60/95/13
f 33/96/14 32/97/14 86/98/14 87/99/14
f 7/100/15 6/101/15 60/102/15 61/103/15
f 34/104/16 33/105/16 87/106/16 88/107/16
f 8/108/17 7/109/17 61/110/17 62/111/17
f 35/112/18 34/113/18 88/114/18 89/115/18
f 9/116/19 8/117/19 62/118/19 63/119/19
f 36/120/20 35/121/20 89/122/20 90/123/20
f 10/124/21 9/116/21 63/119/21 64/125/21
f 37/126/22 36/127/22 90/128/22 91/129/22
f 11/130/23 10/131/23 64/132/23 65/133/23
f 38/134/24 37/135/24 91/136/24 92/137/24
f 12/138/25 11/130/25 65/133/25 66/139/25
f 39/140/26 38/141/26 92/142/26 93/143/26
f 13/144/27 12/145/27 66/146/27 67/147/27
f 40/148/28 39/149/28 93/150/28 94/151/28
f 14/152/29 13/153/29 67/154/29 68/155/29
f 41/156/30 40/157/30 94/158/30 95/159/30
f 15/160/31 14/152/31 68/155/31 69/161/31
f 42/162/32 41/156/32 95/159/32 96/163/32
f 16/164/33 15/165/33 69/166/33 70/167/33
f 43/168/34 42/162/34 96/163/34 97/169/34
f 17/170/35 16/171/35 70/172/35 71/173/35
f 44/174/36 43/175/36 97/176/36 98/177/36
f 18/178/37 17/170/37 71/173/37 72/179/37
f 45/180/38 44/181/38 98/182/38 99/183/38
f 19/184/39 18/178/39 72/179/39 73/185/39
f 46/186/40 45/187/40 99/188/40 100/189/40
f 20/190/41 19/191/41 73/192/41 74/193/41
f 47/194/42 46/186/42 100/189/42 101/195/42
f 21/196/43 20/197/43 74/198/43 75/199/43
f 5/200/44 47/194/44 101/195/44 59/201/44
f 22/202/45 21/203/45 75/204/45 76/205/45
f 1/206/46 4/70/46 56/73/46 102/207/46
f 23/208/47 22/209/47 76/210/47 77/211/47
f 2/212/48 1/206/48 102/207/48 103/213/48
f 24/214/49 23/208/49 77/211/49 78/215/49
f 50/63/50 51/216/50 104/217/50 55/64/50
f 25/218/51 24/219/51 78/220/51 79/221/51
f 51/216/52 52/222/52 105/223/52 104/217/52
f 26/224/53 25/225/53 79/226/53 80/227/53
f 52/228/54 53/229/54 106/230/54 105/231/54
f 27/232/55 26/233/55 80/234/55 81/235/55
