# Blender 4.2.2 LTS
# www.blender.org
mtllib tree3.mtl
o Plane.027
v 14.544456 -0.166376 0.960640
v 14.356072 0.337419 0.960640
v 14.390765 0.532010 0.960640
v 14.474936 0.751839 0.960640
v 14.469969 0.920654 0.960640
v 14.296331 1.352103 0.960640
v 14.449989 1.680291 0.960640
v 14.691586 2.078824 0.960640
v 14.887507 2.433341 0.960640
v 15.097255 2.421989 0.960640
v 15.431476 2.297082 0.960640
v 15.019263 2.545601 0.960640
v 14.916835 2.536661 0.960640
v 14.887224 2.936081 0.960640
v 14.789225 3.174256 0.960640
v 14.794241 2.952224 0.960640
v 14.828716 2.581803 0.960640
v 14.671828 2.276719 0.960640
v 14.642204 2.474744 0.960640
v 14.474509 2.709074 0.960640
v 14.661674 2.988657 0.960640
v 14.685954 3.817724 0.960640
v 14.606959 3.257574 0.960640
v 14.553819 3.037250 0.960640
v 14.411057 2.606267 0.960640
v 14.267414 2.690673 0.960640
v 14.353749 2.506605 0.960640
v 14.303538 2.359872 0.960640
v 14.054482 2.059062 0.960640
v 13.985812 2.235678 0.960640
v 13.972611 2.706715 0.960640
v 14.079554 2.780910 0.960640
v 13.977108 2.791007 0.960640
v 14.003900 2.923644 0.960640
v 14.128468 3.121021 0.960640
v 14.420476 3.305712 0.960640
v 14.433549 3.481349 0.960640
v 14.332165 3.324877 0.960640
v 14.106260 3.227483 0.960640
v 14.119377 3.462580 0.960640
v 13.940654 3.769518 0.960640
v 14.004066 3.470002 0.960640
v 14.021297 3.251573 0.960640
v 13.888305 3.005791 0.960640
v 13.639074 3.430278 0.960640
v 13.289428 3.382684 0.960640
v 13.609900 3.321095 0.960640
v 13.836104 3.122527 0.960640
v 13.841762 2.949578 0.960640
v 13.621035 2.853271 0.960640
v 13.562309 2.448694 0.960640
v 13.527242 2.356152 0.960640
v 13.463257 2.536108 0.960640
v 13.440408 2.877954 0.960640
v 13.218685 3.065112 0.960640
v 12.983846 3.026885 0.960640
v 13.212529 2.949373 0.960640
v 13.352617 2.780225 0.960640
v 13.357923 2.409075 0.960640
v 13.480388 2.234575 0.960640
v 13.596720 1.921101 0.960640
v 13.322111 1.956063 0.960640
v 12.846460 2.253930 0.960640
v 13.081491 1.985345 0.960640
v 13.438888 1.822348 0.960640
v 13.910660 1.440647 0.960640
v 14.067142 1.145669 0.960640
v 14.148218 0.856395 0.960640
v 13.962508 0.407812 0.960640
v 13.939182 0.139927 0.960640
v 13.793337 -0.200292 0.960640
v 14.280951 1.758732 0.960640
v 14.533974 2.133687 0.960640
v 14.556667 2.409549 0.960640
v 14.441746 2.397138 0.960640
v 14.298108 2.110314 0.960640
v 14.257825 1.885676 0.960640
v 13.980357 1.678078 0.960640
v 13.893528 1.990467 0.960640
v 13.789261 2.262532 0.960640
v 13.847416 2.452824 0.960640
v 13.847510 2.631718 0.960640
v 13.708174 2.812199 0.960640
v 13.673146 2.586991 0.960640
v 13.667078 2.361407 0.960640
v 13.585414 2.263232 0.960640
v 13.660931 2.019614 0.960640
v 13.806310 1.944189 0.960640
v 13.864347 1.643356 0.960640
v 14.226285 -0.166377 1.271065
v 14.226285 0.337419 1.082682
v 14.226285 0.532009 1.117375
v 14.226285 0.751839 1.201547
v 14.226285 0.920653 1.196578
v 14.226285 1.352103 1.022942
v 14.226285 1.680291 1.176599
v 14.226285 2.078824 1.418196
v 14.226285 2.433341 1.614118
v 14.226285 2.421988 1.823865
v 14.226285 2.297082 2.158085
v 14.226285 2.545601 1.745873
v 14.226285 2.536661 1.643445
v 14.226285 2.936080 1.613834
v 14.226285 3.174255 1.515835
v 14.226285 2.952224 1.520852
v 14.226285 2.581802 1.555326
v 14.226285 2.276718 1.398438
v 14.226285 2.474743 1.368815
v 14.226285 2.709074 1.201119
v 14.226285 2.988656 1.388285
v 14.226285 3.817724 1.412564
v 14.226285 3.257574 1.333570
v 14.226285 3.037249 1.280429
v 14.226285 2.606267 1.137667
v 14.226285 2.690672 0.994025
v 14.226285 2.506605 1.080360
v 14.226285 2.359872 1.030149
v 14.226285 2.059062 0.781092
v 14.226285 2.235677 0.712422
v 14.226285 2.706715 0.699221
v 14.226285 2.780909 0.806164
v 14.226285 2.791006 0.703718
v 14.226285 2.923644 0.730510
v 14.226285 3.121020 0.855078
v 14.226285 3.305711 1.147087
v 14.226285 3.481349 1.160159
v 14.226285 3.324877 1.058775
v 14.226285 3.227483 0.832871
v 14.226285 3.462580 0.845987
v 14.226285 3.769518 0.667264
v 14.226285 3.470002 0.730676
v 14.226285 3.251573 0.747908
v 14.226285 3.005791 0.614915
v 14.226285 3.430278 0.365684
v 14.226285 3.382683 0.016038
v 14.226285 3.321095 0.336510
v 14.226285 3.122527 0.562715
v 14.226285 2.949578 0.568372
v 14.226285 2.853271 0.347645
v 14.226285 2.448693 0.288920
v 14.226285 2.356151 0.253852
v 14.226285 2.536108 0.189867
v 14.226285 2.877954 0.167018
v 14.226285 3.065112 -0.054705
v 14.226285 3.026885 -0.289545
v 14.226285 2.949372 -0.060860
v 14.226285 2.780225 0.079227
v 14.226285 2.409074 0.084532
v 14.226285 2.234575 0.206998
v 14.226285 1.921101 0.323329
v 14.226285 1.956063 0.048721
v 14.226285 2.253929 -0.426930
v 14.226285 1.985345 -0.191899
v 14.226285 1.822348 0.165498
v 14.226285 1.440647 0.637270
v 14.226285 1.145669 0.793753
v 14.226285 0.856395 0.874828
v 14.226285 0.407811 0.689119
v 14.226285 0.139926 0.665793
v 14.226285 -0.200293 0.519947
v 14.226285 1.758732 1.007561
v 14.226285 2.133687 1.260584
v 14.226285 2.409549 1.283277
v 14.226285 2.397137 1.168356
v 14.226285 2.110314 1.024718
v 14.226285 1.885676 0.984435
v 14.226285 1.678078 0.706967
v 14.226285 1.990467 0.620138
v 14.226285 2.262532 0.515871
v 14.226285 2.452823 0.574026
v 14.226285 2.631718 0.574121
v 14.226285 2.812198 0.434784
v 14.226285 2.586991 0.399756
v 14.226285 2.361407 0.393688
v 14.226285 2.263231 0.312024
v 14.226285 2.019614 0.387541
v 14.226285 1.944189 0.532919
v 14.226285 1.643356 0.590957
vn -0.0000 -0.0000 -1.0000
vn 1.0000 -0.0000 -0.0000
vt 0.298726 0.744025
vt 0.266605 0.688860
vt 0.268962 0.646608
vt 0.228361 0.664112
vt 0.210140 0.692234
vt 0.212489 0.660667
vt 0.264971 0.627474
vt 0.287359 0.592000
vt 0.292174 0.568162
vt 0.273762 0.566347
vt 0.292982 0.553013
vt 0.290610 0.468355
vt 0.278268 0.436613
vt 0.233506 0.490676
vt 0.224482 0.517048
vt 0.239999 0.550129
vt 0.214182 0.534959
vt 0.208667 0.497374
vt 0.234482 0.445824
vt 0.241722 0.405451
vt 0.237566 0.382636
vt 0.207185 0.368538
vt 0.234801 0.309555
vt 0.203595 0.232012
vt 0.202702 0.201672
vt 0.217829 0.162163
vt 0.224064 0.127190
vt 0.190207 0.036646
vt 0.325202 0.030550
vt 0.298990 0.091696
vt 0.294798 0.139842
vt 0.261421 0.220463
vt 0.275992 0.272453
vt 0.304116 0.325468
vt 0.312440 0.361900
vt 0.291590 0.368140
vt 0.307195 0.424285
vt 0.325935 0.473182
vt 0.315483 0.507382
vt 0.315466 0.539534
vt 0.308134 0.606764
vt 0.284232 0.650937
vt 0.287329 0.690194
vt 0.192091 0.409489
vt 0.188012 0.459068
vt 0.188525 0.571882
vt 0.178974 0.611480
vt 0.164776 0.712153
vt 0.169140 0.563149
vt 0.202778 0.512901
vt 0.172639 0.470786
vt 0.167315 0.435196
vt 0.139119 0.490027
vt 0.145314 0.556601
vt 0.146216 0.596506
vt 0.128603 0.553700
vt 0.123281 0.481914
vt 0.104872 0.483521
vt 0.030788 0.438855
vt 0.090855 0.461304
vt 0.128552 0.463345
vt 0.163764 0.399629
vt 0.340508 0.531435
vt 0.346803 0.490959
vt 0.347894 0.450416
vt 0.362571 0.432772
vt 0.348999 0.388987
vt 0.322871 0.375432
vt 0.388906 0.353534
vt 0.453139 0.382829
vt 0.495380 0.431100
vt 0.409893 0.377566
vt 0.360539 0.371282
vt 0.381447 0.427621
vt 0.403457 0.458983
vt 0.404411 0.525688
vt 0.429588 0.556088
vt 0.470688 0.570019
vt 0.428482 0.576890
vt 0.388632 0.543253
vt 0.384526 0.481814
vt 0.373026 0.449472
vt 0.366724 0.466104
vt 0.356169 0.538817
vt 0.316499 0.556125
vt 0.317516 0.587209
vt 0.358170 0.622896
vt 0.415767 0.633965
vt 0.352927 0.642519
s 0
usemtl Material.029
f 41/1/1 40/2/1 39/3/1 38/4/1 37/5/1 36/6/1 35/7/1 34/8/1 33/9/1 32/10/1 31/11/1 30/12/1 29/13/1 28/14/1 27/15/1 26/16/1 25/17/1 75/18/1 76/19/1 77/20/1 72/21/1 7/22/1 6/23/1 5/24/1 4/25/1 3/26/1 2/27/1 1/28/1 71/29/1 70/30/1 69/31/1 68/32/1 67/33/1 66/34/1 89/35/1 78/36/1 79/37/1 80/38/1 81/39/1 82/40/1 44/41/1 43/42/1 42/43/1
f 7/22/1 72/21/1 73/44/1 74/45/1 75/18/1 25/17/1 24/46/1 23/47/1 22/48/1 21/49/1 20/50/1 19/51/1 18/52/1 17/53/1 16/54/1 15/55/1 14/56/1 13/57/1 12/58/1 11/59/1 10/60/1 9/61/1 8/62/1
f 44/41/1 82/40/1 83/63/1 84/64/1 85/65/1 86/66/1 87/67/1 88/68/1 89/35/1 66/34/1 65/69/1 64/70/1 63/71/1 62/72/1 61/73/1 60/74/1 59/75/1 58/76/1 57/77/1 56/78/1 55/79/1 54/80/1 53/81/1 52/82/1 51/83/1 50/84/1 49/85/1 48/86/1 47/87/1 46/88/1 45/89/1
usemtl Material.030
f 130/1/2 129/2/2 128/3/2 127/4/2 126/5/2 125/6/2 124/7/2 123/8/2 122/9/2 121/10/2 120/11/2 119/12/2 118/13/2 117/14/2 116/15/2 115/16/2 114/17/2 164/18/2 165/19/2 166/20/2 161/21/2 96/22/2 95/23/2 94/24/2 93/25/2 92/26/2 91/27/2 90/28/2 160/29/2 159/30/2 158/31/2 157/32/2 156/33/2 155/34/2 178/35/2 167/36/2 168/37/2 169/38/2 170/39/2 171/40/2 133/41/2 132/42/2 131/43/2
f 96/22/2 161/21/2 162/44/2 163/45/2 164/18/2 114/17/2 113/46/2 112/47/2 111/48/2 110/49/2 109/50/2 108/51/2 107/52/2 106/53/2 105/54/2 104/55/2 103/56/2 102/57/2 101/58/2 100/59/2 99/60/2 98/61/2 97/62/2
f 133/41/2 171/40/2 172/63/2 173/64/2 174/65/2 175/66/2 176/67/2 177/68/2 178/35/2 155/34/2 154/69/2 153/70/2 152/71/2 151/72/2 150/73/2 149/74/2 148/75/2 147/76/2 146/77/2 145/78/2 144/79/2 143/80/2 142/81/2 141/82/2 140/83/2 139/84/2 138/85/2 137/86/2 136/87/2 135/88/2 134/89/2
